<?xml version="1.0" encoding="UTF-8"?>
<!DOCTYPE svg PUBLIC "-//W3C//DTD SVG 1.1//EN" "http://www.w3.org/Graphics/SVG/1.1/DTD/svg11.dtd">
<!-- Creator: CorelDRAW -->
<svg xmlns="http://www.w3.org/2000/svg" xml:space="preserve" width="5.7811mm" height="5.8281mm" style="shape-rendering:geometricPrecision; text-rendering:geometricPrecision; image-rendering:optimizeQuality; fill-rule:evenodd; clip-rule:evenodd"
viewBox="0 0 0.19341 0.194983"
 xmlns:xlink="http://www.w3.org/1999/xlink">
 <defs>
  <style type="text/css">
   <![CDATA[
    .str0 {stroke:#D97C2B;stroke-width:0.0083639}
    .str1 {stroke:#D97C2B;stroke-width:0.0117095}
    .fil0 {fill:none}
    .fil1 {fill:#D97C2B}
   ]]>
  </style>
 </defs>
 <g id="Capa_x0020_1">
  <metadata id="CorelCorpID_0Corel-Layer"/>
  <g id="_138251248">
   <ellipse id="_138290416" class="fil0 str0" cx="0.124637" cy="0.121868" rx="0.0434438" ry="0.0425217"/>
   <path id="_138290488" class="fil1" d="M0.163795 0.14682l0.0288354 0.0308427c0.00222145,0.00265972 -0.000709259,0.00730001 -0.00407155,0.0105452 -0.00322846,0.00306453 -0.00800927,0.0048979 -0.0101872,0.00278685l-0.0288354 -0.0308427c-0.00250248,-0.00278685 0.000287718,-0.00637664 0.00404478,-0.0100333 0.00338571,-0.0031649 0.00758104,-0.00605881 0.010214,-0.00329872z"/>
   <path id="_138291256" class="fil0 str1" d="M0.146746 0.084636l0.000408158 -0.0631006c-0.000297755,-0.00790221 -0.00368012,-0.0153427 -0.0118834,-0.0156806l-0.0799455 0c-0.00416522,0.000123786 -0.00767806,0.00371692 -0.00923709,0.00547334l-0.0363963 0.0482664c-0.00138172,0.00214116 -0.00163263,0.00330207 -0.00211105,0.00491128l-0.000649039 0.00437265 -0.00110069 0.110745c0.00021077,0.00642347 0.0059551,0.00844085 0.0125291,0.00911665l0.119741 0.000411504c0.00636325,-0.000321174 0.00895272,-0.00569749 0.00942779,-0.00857132l6.69112e-005 -0.020331"/>
   <path id="_137214112" class="fil1" d="M0.0945689 0.123113c-4.68378e-005,-0.00211105 0.00262292,-0.00285711 0.00401467,-0.00293071 0.00133488,-7.02567e-005 0.00388085,0.000662421 0.00417191,0.00249579 0.00151219,0.0124388 0.010572,0.0221978 0.0236665,0.0223651 0.00353291,1.67278e-005 0.00332883,0.00164936 0.00336229,0.00403809 -0.000244226,0.00233855 -0.00140179,0.00343589 -0.00278685,0.00351284 -0.0146101,0.000458342 -0.0311806,-0.00699556 -0.0324285,-0.0294811z"/>
  </g>
 </g>
</svg>
