<?xml version="1.0" encoding="UTF-8"?>
<!DOCTYPE svg PUBLIC "-//W3C//DTD SVG 1.1//EN" "http://www.w3.org/Graphics/SVG/1.1/DTD/svg11.dtd">
<!-- Creator: CorelDRAW -->
<svg xmlns="http://www.w3.org/2000/svg" xml:space="preserve" width="26.1197mm" height="20.1796mm" style="shape-rendering:geometricPrecision; text-rendering:geometricPrecision; image-rendering:optimizeQuality; fill-rule:evenodd; clip-rule:evenodd"
viewBox="0 0 4.6001 3.55395"
 xmlns:xlink="http://www.w3.org/1999/xlink">
 <defs>
  <style type="text/css">
   <![CDATA[
    .str1 {stroke:#E5D7BE;stroke-width:0.088058}
    .str0 {stroke:#E5D7BE;stroke-width:0.123281}
    .fil0 {fill:none}
    .fil1 {fill:#E5D7BE}
    .fil2 {fill:#E5D7BE;fill-rule:nonzero}
   ]]>
  </style>
 </defs>
 <g id="Capa_x0020_1">
  <metadata id="CorelCorpID_0Corel-Layer"/>
  <g id="_134110528">
   <path id="_134110456" class="fil0 str0" d="M0.0614821 0.728997c-0.00611123,-0.261356 0.15072,-0.674648 0.424669,-0.667603l3.15949 0.00681569c0.0620985,-0.00368083 0.0616406,0.581236 0.00961594,0.683806"/>
   <path id="_134110768" class="fil0 str1" d="M4.54564 1.51757l-0.442157 0.211868 -0.706736 -0.00373366c-0.183196,0.0197954 -0.335783,0.241279 -0.330394,0.458377 0.00540676,0.217116 0.108875,0.408448 0.326537,0.432418l0.761138 -0.00336382c0.0365265,-0.00988011 0.377558,-0.072824 0.375779,-0.116025l0.0158328 -0.97954z"/>
   <line id="_134110600" class="fil0 str0" x1="4.59962" y1="1.44642" x2="4.08845" y2= "1.44079" />
   <path id="_134110624" class="fil0 str0" d="M0.062257 0.774911l4.09179 0 0 2.7174 -3.8981 0c-0.108998,-0.00537154 -0.189712,-0.115972 -0.193692,-0.273878l0 -2.44352z"/>
   <ellipse id="_134110720" class="fil1" cx="3.50412" cy="2.17178" rx="0.155837" ry="0.165262"/>
   <path id="_134110792" class="fil2" d="M1.94717 3.12583l0 -0.186207c-0.0933063,-0.0116765 -0.168931,-0.032511 -0.227243,-0.0625564 -0.0582944,-0.0299926 -0.108822,-0.0787767 -0.151248,-0.145595 -0.0423735,-0.0671002 -0.0671002,-0.148748 -0.0738278,-0.245206l0.187264 -0.0353641c0.0145296,0.100016 0.0399783,0.173545 0.0766809,0.220533 0.0523417,0.0663957 0.115198,0.103169 0.188374,0.110583l0 -0.592947c-0.0766809,-0.0144767 -0.154771,-0.0441699 -0.234992,-0.0890443 -0.0593511,-0.0332155 -0.10493,-0.0791289 -0.137142,-0.137776 -0.0321412,-0.0586995 -0.0480268,-0.125113 -0.0480268,-0.199698 0,-0.13251 0.0469878,-0.23994 0.140646,-0.321887 0.062891,-0.0554766 0.156197,-0.0890443 0.279514,-0.101408l0 -0.0890443 0.109879 0 0 0.0890443c0.108135,0.0102147 0.194379,0.0420213 0.257623,0.0950498 0.0815946,0.0674701 0.130379,0.160424 0.147004,0.278422l-0.192618 0.0289887c-0.0109192,-0.0731586 -0.03392,-0.129304 -0.068879,-0.168226 -0.034642,-0.0388688 -0.0823343,-0.0646522 -0.14313,-0.0770332l0 0.537154c0.0936585,0.0236348 0.155863,0.0420213 0.186207,0.0550891 0.057995,0.0254488 0.105335,0.0565509 0.141738,0.092954 0.0367202,0.036773 0.0650044,0.0802385 0.0844476,0.130379 0.0197778,0.0505277 0.0296932,0.104965 0.0296932,0.163612 0,0.129322 -0.0413697,0.236753 -0.123352,0.322997 -0.0819996,0.0865963 -0.188321,0.13251 -0.318735,0.138885l0 0.188303 -0.109879 0zm0 -1.63147c-0.0724189,0.010972 -0.129674,0.0399079 -0.171396,0.0869485 -0.0417219,0.0469701 -0.0625564,0.102464 -0.0625564,0.166782 0,0.0632433 0.0176821,0.116589 0.0533984,0.15935 0.0356635,0.0427786 0.0957543,0.0770332 0.180554,0.102482l0 -0.515562zm0.109879 1.28765c0.0724718,-0.00882341 0.132175,-0.0402777 0.179497,-0.0939579 0.0473752,-0.0537506 0.0710628,-0.120499 0.0710628,-0.200033 0,-0.0674701 -0.0169776,-0.121908 -0.0501755,-0.162872 -0.0336029,-0.0410174 -0.100369,-0.0777905 -0.200385,-0.110284l0 0.567146z"/>
  </g>
 </g>
</svg>
