<?xml version="1.0" encoding="UTF-8"?>
<!DOCTYPE svg PUBLIC "-//W3C//DTD SVG 1.1//EN" "http://www.w3.org/Graphics/SVG/1.1/DTD/svg11.dtd">
<!-- Creator: CorelDRAW -->
<svg xmlns="http://www.w3.org/2000/svg" xml:space="preserve" width="61.3706mm" height="60.5401mm" style="shape-rendering:geometricPrecision; text-rendering:geometricPrecision; image-rendering:optimizeQuality; fill-rule:evenodd; clip-rule:evenodd"
viewBox="0 0 60.9868 60.1615"
 xmlns:xlink="http://www.w3.org/1999/xlink">
 <defs>
  <style type="text/css">
   <![CDATA[
    .fil0 {fill:#F23005}
    .fil1 {fill:white;fill-rule:nonzero}
   ]]>
  </style>
 </defs>
 <g id="Capa_x0020_1">
  <metadata id="CorelCorpID_0Corel-Layer"/>
  <ellipse class="fil0" cx="30.0807" cy="30.0808" rx="30.0806" ry="30.0807"/>
  <g id="_135097104">
   <path id="_136152672" class="fil1" d="M11.2368 27.0689l0 2.70915 -10.8339 -5.50744 0 -2.41013 10.8339 -5.50744 0 2.7018 -7.72131 4.01285 7.72131 4.00122zm17.73 -9.17616l-2.12473 2.02824c-1.44689,-1.5251 -3.07217,-2.28731 -4.8784,-2.28731 -1.52878,0 -2.813,0.521916 -3.85703,1.56177 -1.04343,1.04025 -1.56545,2.32457 -1.56545,3.84967 0,1.06231 0.229257,2.00608 0.691946,2.8282 0.462788,0.825207 1.11796,1.47313 1.96215,1.94317 0.847169,0.470042 1.78735,0.702976 2.82035,0.702976 0.880757,0 1.68818,-0.162577 2.42057,-0.492103 0.728714,-0.328433 1.69026,-0.893378 2.56377,-1.7632l1.90392 2.11469c-1.4627,0.836834 -2.29476,1.94685 -3.34237,2.39125 -1.04771,0.444304 -2.24328,0.666307 -3.59051,0.666307 -2.47622,0 -4.50803,-0.784861 -6.08878,-2.35766 -1.57698,-1.5734 -2.36919,-3.58683 -2.36919,-6.04466 0,-1.59168 0.359438,-3.00559 1.0813,-4.2421 0.717684,-1.23602 1.74701,-2.22808 3.09055,-2.97935 1.33987,-0.751769 2.78358,-1.1289 4.33075,-1.1289 1.31781,0 2.58374,0.277454 3.80138,0.836238 1.21764,0.555504 2.26892,1.34772 3.14978,2.37277z"/>
   <path id="_136166400" class="fil1" d="M38.042 28.4082l-2.10734 2.01154c-1.43497,-1.51258 -3.04693,-2.26852 -4.83845,-2.26852 -1.51626,0 -2.78994,0.517643 -3.82543,1.54895 -1.03489,1.03181 -1.55263,2.30559 -1.55263,3.81817 0,1.05367 0.227369,1.98968 0.686281,2.80505 0.458912,0.81845 1.10882,1.46111 1.94605,1.92727 0.840312,0.466266 1.77274,0.697213 2.7972,0.697213 0.873702,0 1.67397,-0.161285 2.40079,-0.488029 0.723249,-0.326744 1.51994,-0.917824 2.38618,-1.78059l2.04493 2.1292c-1.17123,1.14162 -2.27588,1.93095 -3.31504,2.37168 -1.03906,0.440727 -2.2249,0.660742 -3.56109,0.660742 -2.45594,0 -4.47116,-0.778402 -6.0389,-2.33829 -1.56406,-1.56048 -2.34971,-3.55751 -2.34971,-5.99517 0,-1.57867 0.356357,-2.98094 1.07235,-4.20732 0.711821,-1.22589 1.7327,-2.20989 3.06521,-2.955 1.32894,-0.745608 2.76083,-1.11965 4.29527,-1.11965 1.30707,0 2.56267,0.275168 3.77027,0.829381 1.2077,0.551032 2.25044,1.33669 3.12404,2.35339zm1.3034 15.8558l7.10767 -19.0937 2.08856 0 -7.12168 19.0937 -2.07455 0zm10.8961 -14.7033l0 -2.67964 10.7453 5.46233 0 2.39036 -10.7453 5.46233 0 -2.68689 7.66904 -3.96853 -7.66904 -3.97995z"/>
  </g>
 </g>
</svg>
