<?xml version="1.0" encoding="UTF-8"?>
<!DOCTYPE svg PUBLIC "-//W3C//DTD SVG 1.1//EN" "http://www.w3.org/Graphics/SVG/1.1/DTD/svg11.dtd">
<!-- Creator: CorelDRAW -->
<svg xmlns="http://www.w3.org/2000/svg" xml:space="preserve" width="10mm" height="10mm" style="shape-rendering:geometricPrecision; text-rendering:geometricPrecision; image-rendering:optimizeQuality; fill-rule:evenodd; clip-rule:evenodd"
viewBox="0 0 1.51931 1.51931"
 xmlns:xlink="http://www.w3.org/1999/xlink">
 <defs>
  <style type="text/css">
   <![CDATA[
    .fil1 {fill:white}
    .fil0 {fill:#F23005}
   ]]>
  </style>
 </defs>
 <g id="Capa_x0020_1">
  <metadata id="CorelCorpID_0Corel-Layer"/>
  <g id="_132731912">
   <circle id="_135271560" class="fil0" cx="0.759651" cy="0.759651" r="0.759657"/>
   <g>
    <path id="_134095984" class="fil1" d="M0.741607 0.325984c0.0104377,-0.00423888 0.0234126,-0.00413253 0.0337743,0.000334249l0.193044 0.138713 -0.000592532 -0.0178823c4.55794e-005,-0.0146918 0.0181558,-0.0308573 0.0315561,-0.0316017l0.0750997 -0.000790043c0.0188547,0.00197511 0.0315713,0.0144639 0.0338199,0.026588l0.00141296 0.124644 0.142314 0.114237c0.00396541,0.0228505 0.000349442,0.043346 -0.0346859,0.0413861l-0.442029 -0.33747c-0.00445159,-0.00247648 -0.0281377,-0.00188395 -0.0321335,0.000622919l-0.44016 0.332973c-0.0365699,0.00587974 -0.0484053,-0.0119874 -0.0376638,-0.0394414l0.476244 -0.352314z"/>
    <path id="_134095360" class="fil1" d="M0.407829 1.05568l-0.00493777 -0.328703 0.335799 -0.254652c0.0141904,-0.00820429 0.0310852,-0.00717116 0.0431029,-0.000151931l0.333246 0.253011 0 0.33592c0.000455794,0.0312979 -0.0117139,0.0665611 -0.0690224,0.0666979l-0.183092 -0.00607725 -0.00238532 -0.230343c-0.000592532,-0.0192193 -0.0299001,-0.0531152 -0.052705,-0.0534798l-0.0980413 -0.000668498c-0.0142056,-3.03863e-005 -0.0574756,0.0294595 -0.0570654,0.0556828l-0.00127622 0.236056 -0.170725 -0.00147373c-0.0447134,0.00053176 -0.0655736,-0.0362812 -0.0728967,-0.0718179z"/>
   </g>
  </g>
 </g>
</svg>
