<?xml version="1.0" encoding="UTF-8"?>
<!DOCTYPE svg PUBLIC "-//W3C//DTD SVG 1.1//EN" "http://www.w3.org/Graphics/SVG/1.1/DTD/svg11.dtd">
<!-- Creator: CorelDRAW -->
<svg xmlns="http://www.w3.org/2000/svg" xml:space="preserve" width="22.3683mm" height="26.4066mm" style="shape-rendering:geometricPrecision; text-rendering:geometricPrecision; image-rendering:optimizeQuality; fill-rule:evenodd; clip-rule:evenodd"
viewBox="0 0 3.37593 3.98541"
 xmlns:xlink="http://www.w3.org/1999/xlink">
 <defs>
  <style type="text/css">
   <![CDATA[
    .fil0 {fill:white}
   ]]>
  </style>
 </defs>
 <g id="Capa_x0020_1">
  <metadata id="CorelCorpID_0Corel-Layer"/>
  <g id="_126825832">
   <rect id="_126826816" class="fil0" x="0.135458" y="3.8173" width="3.24048" height="0.168098"/>
   <rect id="_126826720" class="fil0" x="0.210252" y="2.9941" width="0.500319" height="0.728129"/>
   <rect id="_126826672" class="fil0" x="0.853375" y="2.54191" width="0.500319" height="1.18032"/>
   <rect id="_126826576" class="fil0" x="1.4965" y="2.19826" width="0.500319" height="1.52397"/>
   <rect id="_126826600" class="fil0" x="2.13962" y="1.72822" width="0.500319" height="1.99401"/>
   <rect id="_126826912" class="fil0" x="2.78274" y="1.30882" width="0.500319" height="2.4134"/>
   <path id="_126825856" class="fil0" d="M0.0434664 2.40623c-0.0656372,0.0430136 -0.0424552,0.063162 -0.0234537,0.0620603 0.495456,-0.0291587 1.23727,-0.228787 1.63417,-0.595353 0.549623,-0.391801 0.857978,-0.716591 0.992301,-1.01349l0.271499 0.157867 -0.0408101 -1.01731 -0.853872 0.390171 0.253131 0.219083c-0.292387,0.52063 -0.726145,0.899588 -1.26597,1.29356 -0.384692,0.256452 -0.535164,0.319327 -0.966991,0.50341z"/>
  </g>
 </g>
</svg>
